<svg version="1.1" xmlns="http://www.w3.org/2000/svg" viewBox="0 0 582.275390625 316" width="582.275390625" height="316">
  <!-- svg-source:excalidraw -->
  
  <defs>
    <style class="style-fonts">
      @font-face {
        font-family: "Virgil";
        src: url("https://excalidraw.com/Virgil.woff2");
      }
      @font-face {
        font-family: "Cascadia";
        src: url("https://excalidraw.com/Cascadia.woff2");
      }
      @font-face {
        font-family: "Assistant";
        src: url("https://excalidraw.com/Assistant-Regular.woff2");
      }
    </style>
    
  </defs>
  <rect x="0" y="0" width="582.275390625" height="316" fill="#ffffff"></rect><g stroke-linecap="round" transform="translate(10 10) rotate(0 200 20)"><path d="M10 0 C121.17 0, 232.35 0, 390 0 M10 0 C87.65 0, 165.3 0, 390 0 M390 0 C396.67 0, 400 3.33, 400 10 M390 0 C396.67 0, 400 3.33, 400 10 M400 10 C400 17.34, 400 24.68, 400 30 M400 10 C400 15.6, 400 21.2, 400 30 M400 30 C400 36.67, 396.67 40, 390 40 M400 30 C400 36.67, 396.67 40, 390 40 M390 40 C248.19 40, 106.37 40, 10 40 M390 40 C299.31 40, 208.62 40, 10 40 M10 40 C3.33 40, 0 36.67, 0 30 M10 40 C3.33 40, 0 36.67, 0 30 M0 30 C0 22.43, 0 14.87, 0 10 M0 30 C0 24.75, 0 19.5, 0 10 M0 10 C0 3.33, 3.33 0, 10 0 M0 10 C0 3.33, 3.33 0, 10 0" stroke="#1e1e1e" stroke-width="1" fill="none"></path></g><g transform="translate(136.640625 18.5) rotate(0 73.359375 11.5)"><text x="73.359375" y="0" font-family="Helvetica, Segoe UI Emoji" font-size="20px" fill="#1e1e1e" text-anchor="middle" style="white-space: pre;" direction="ltr" dominant-baseline="text-before-edge">GlobalAlloc Trait</text></g><g stroke-linecap="round" transform="translate(10 110) rotate(0 200 50)"><path d="M25 0 C134.29 0, 243.57 0, 375 0 M25 0 C159.85 0, 294.69 0, 375 0 M375 0 C391.67 0, 400 8.33, 400 25 M375 0 C391.67 0, 400 8.33, 400 25 M400 25 C400 44.37, 400 63.74, 400 75 M400 25 C400 38.46, 400 51.92, 400 75 M400 75 C400 91.67, 391.67 100, 375 100 M400 75 C400 91.67, 391.67 100, 375 100 M375 100 C259.2 100, 143.4 100, 25 100 M375 100 C260.73 100, 146.47 100, 25 100 M25 100 C8.33 100, 0 91.67, 0 75 M25 100 C8.33 100, 0 91.67, 0 75 M0 75 C0 55.44, 0 35.89, 0 25 M0 75 C0 64.76, 0 54.52, 0 25 M0 25 C0 8.33, 8.33 0, 25 0 M0 25 C0 8.33, 8.33 0, 25 0" stroke="#1e1e1e" stroke-width="1" fill="none"></path></g><g transform="translate(142.1875 115) rotate(0 67.8125 11.5)"><text x="67.8125" y="0" font-family="Helvetica, Segoe UI Emoji" font-size="20px" fill="#1e1e1e" text-anchor="middle" style="white-space: pre;" direction="ltr" dominant-baseline="text-before-edge">GlobalAllocator</text></g><g stroke-linecap="round" transform="translate(30 170) rotate(0 80 20)"><path d="M10 0 C63.83 0, 117.66 0, 150 0 M10 0 C42.23 0, 74.45 0, 150 0 M150 0 C156.67 0, 160 3.33, 160 10 M150 0 C156.67 0, 160 3.33, 160 10 M160 10 C160 17.92, 160 25.84, 160 30 M160 10 C160 14.88, 160 19.76, 160 30 M160 30 C160 36.67, 156.67 40, 150 40 M160 30 C160 36.67, 156.67 40, 150 40 M150 40 C118.18 40, 86.36 40, 10 40 M150 40 C96.91 40, 43.81 40, 10 40 M10 40 C3.33 40, 0 36.67, 0 30 M10 40 C3.33 40, 0 36.67, 0 30 M0 30 C0 22.36, 0 14.73, 0 10 M0 30 C0 23.99, 0 17.98, 0 10 M0 10 C0 3.33, 3.33 0, 10 0 M0 10 C0 3.33, 3.33 0, 10 0" stroke="#1e1e1e" stroke-width="1" fill="none"></path></g><g transform="translate(59.4091796875 178.5) rotate(0 50.5908203125 11.5)"><text x="50.5908203125" y="0" font-family="Helvetica, Segoe UI Emoji" font-size="20px" fill="#1e1e1e" text-anchor="middle" style="white-space: pre;" direction="ltr" dominant-baseline="text-before-edge">pages alloc</text></g><g stroke-linecap="round" transform="translate(230 170) rotate(0 80 20)"><path d="M10 0 C47.22 0, 84.44 0, 150 0 M10 0 C50.98 0, 91.95 0, 150 0 M150 0 C156.67 0, 160 3.33, 160 10 M150 0 C156.67 0, 160 3.33, 160 10 M160 10 C160 15.48, 160 20.96, 160 30 M160 10 C160 16.48, 160 22.96, 160 30 M160 30 C160 36.67, 156.67 40, 150 40 M160 30 C160 36.67, 156.67 40, 150 40 M150 40 C120.75 40, 91.5 40, 10 40 M150 40 C119.76 40, 89.51 40, 10 40 M10 40 C3.33 40, 0 36.67, 0 30 M10 40 C3.33 40, 0 36.67, 0 30 M0 30 C0 25.89, 0 21.77, 0 10 M0 30 C0 23.47, 0 16.94, 0 10 M0 10 C0 3.33, 3.33 0, 10 0 M0 10 C0 3.33, 3.33 0, 10 0" stroke="#1e1e1e" stroke-width="1" fill="none"></path></g><g transform="translate(262.75390625 178.5) rotate(0 47.24609375 11.5)"><text x="47.24609375" y="0" font-family="Helvetica, Segoe UI Emoji" font-size="20px" fill="#1e1e1e" text-anchor="middle" style="white-space: pre;" direction="ltr" dominant-baseline="text-before-edge">bytes alloc</text></g><g stroke-linecap="round" transform="translate(290 250) rotate(0 60 28)"><path d="M14 0 C38.81 0, 63.63 0, 106 0 M106 0 C115.33 0, 120 4.67, 120 14 M120 14 C120 22.11, 120 30.23, 120 42 M120 42 C120 51.33, 115.33 56, 106 56 M106 56 C78.64 56, 51.29 56, 14 56 M14 56 C4.67 56, 0 51.33, 0 42 M0 42 C0 32.05, 0 22.1, 0 14 M0 14 C0 4.67, 4.67 0, 14 0" stroke="#1e1e1e" stroke-width="1.5" fill="none" stroke-dasharray="1.5 7"></path></g><g transform="translate(312.2021484375 255) rotate(0 37.7978515625 23)"><text x="37.7978515625" y="0" font-family="Helvetica, Segoe UI Emoji" font-size="20px" fill="#1e1e1e" text-anchor="middle" style="white-space: pre;" direction="ltr" dominant-baseline="text-before-edge">buddy </text><text x="37.7978515625" y="23" font-family="Helvetica, Segoe UI Emoji" font-size="20px" fill="#1e1e1e" text-anchor="middle" style="white-space: pre;" direction="ltr" dominant-baseline="text-before-edge">allocator</text></g><g stroke-linecap="round" transform="translate(10 250) rotate(0 60 28)"><path d="M14 0 C45.26 0, 76.51 0, 106 0 M106 0 C115.33 0, 120 4.67, 120 14 M120 14 C120 21.56, 120 29.11, 120 42 M120 42 C120 51.33, 115.33 56, 106 56 M106 56 C77.17 56, 48.34 56, 14 56 M14 56 C4.67 56, 0 51.33, 0 42 M0 42 C0 31.78, 0 21.56, 0 14 M0 14 C0 4.67, 4.67 0, 14 0" stroke="#1e1e1e" stroke-width="1.5" fill="none" stroke-dasharray="1.5 7"></path></g><g transform="translate(32.2021484375 255) rotate(0 37.7978515625 23)"><text x="37.7978515625" y="0" font-family="Helvetica, Segoe UI Emoji" font-size="20px" fill="#1e1e1e" text-anchor="middle" style="white-space: pre;" direction="ltr" dominant-baseline="text-before-edge">bitmap </text><text x="37.7978515625" y="23" font-family="Helvetica, Segoe UI Emoji" font-size="20px" fill="#1e1e1e" text-anchor="middle" style="white-space: pre;" direction="ltr" dominant-baseline="text-before-edge">allocator</text></g><g stroke-linecap="round" transform="translate(150 250) rotate(0 60 28)"><path d="M14 0 C49.95 0, 85.89 0, 106 0 M14 0 C50.4 0, 86.8 0, 106 0 M106 0 C115.33 0, 120 4.67, 120 14 M106 0 C115.33 0, 120 4.67, 120 14 M120 14 C120 22.09, 120 30.17, 120 42 M120 14 C120 20.53, 120 27.07, 120 42 M120 42 C120 51.33, 115.33 56, 106 56 M120 42 C120 51.33, 115.33 56, 106 56 M106 56 C78.54 56, 51.07 56, 14 56 M106 56 C76.43 56, 46.86 56, 14 56 M14 56 C4.67 56, 0 51.33, 0 42 M14 56 C4.67 56, 0 51.33, 0 42 M0 42 C0 31.82, 0 21.65, 0 14 M0 42 C0 30.97, 0 19.94, 0 14 M0 14 C0 4.67, 4.67 0, 14 0 M0 14 C0 4.67, 4.67 0, 14 0" stroke="#1e1e1e" stroke-width="1" fill="none"></path></g><g transform="translate(172.2021484375 255) rotate(0 37.7978515625 23)"><text x="37.7978515625" y="0" font-family="Helvetica, Segoe UI Emoji" font-size="20px" fill="#1e1e1e" text-anchor="middle" style="white-space: pre;" direction="ltr" dominant-baseline="text-before-edge">early</text><text x="37.7978515625" y="23" font-family="Helvetica, Segoe UI Emoji" font-size="20px" fill="#1e1e1e" text-anchor="middle" style="white-space: pre;" direction="ltr" dominant-baseline="text-before-edge">allocator</text></g><g stroke-linecap="round"><g transform="translate(210 110) rotate(0 0 -30)"><path d="M0 0 C0 -10, 0 -50, 0 -60 M0 0 C0 -10, 0 -50, 0 -60" stroke="#1e1e1e" stroke-width="1" fill="none"></path></g><g transform="translate(210 110) rotate(0 0 -30)"><path d="M8.55 -36.51 C5.43 -45.07, 2.32 -53.63, 0 -60 M8.55 -36.51 C6.11 -43.21, 3.67 -49.91, 0 -60" stroke="#1e1e1e" stroke-width="1" fill="none"></path></g><g transform="translate(210 110) rotate(0 0 -30)"><path d="M-8.55 -36.51 C-5.43 -45.07, -2.32 -53.63, 0 -60 M-8.55 -36.51 C-6.11 -43.21, -3.67 -49.91, 0 -60" stroke="#1e1e1e" stroke-width="1" fill="none"></path></g></g><mask></mask><g transform="translate(230 70) rotate(0 18.3349609375 11.5)"><text x="0" y="0" font-family="Helvetica, Segoe UI Emoji" font-size="20px" fill="#1e1e1e" text-anchor="start" style="white-space: pre;" direction="ltr" dominant-baseline="text-before-edge">impl</text></g><g stroke-linecap="round"><g transform="translate(50 250) rotate(0 0 -20)"><path d="M0 0 C0 -6.67, 0 -33.33, 0 -40 M0 0 C0 -6.67, 0 -33.33, 0 -40" stroke="#1e1e1e" stroke-width="1" fill="none"></path></g><g transform="translate(50 250) rotate(0 0 -20)"><path d="M6.84 -21.21 C4.28 -28.23, 1.73 -35.25, 0 -40 M6.84 -21.21 C5.18 -25.75, 3.53 -30.3, 0 -40" stroke="#1e1e1e" stroke-width="1" fill="none"></path></g><g transform="translate(50 250) rotate(0 0 -20)"><path d="M-6.84 -21.21 C-4.28 -28.23, -1.73 -35.25, 0 -40 M-6.84 -21.21 C-5.18 -25.75, -3.53 -30.3, 0 -40" stroke="#1e1e1e" stroke-width="1" fill="none"></path></g></g><mask></mask><g stroke-linecap="round"><g transform="translate(370 250) rotate(0 0 -20)"><path d="M0 0 C0 -6.67, 0 -33.33, 0 -40 M0 0 C0 -6.67, 0 -33.33, 0 -40" stroke="#1e1e1e" stroke-width="1" fill="none"></path></g><g transform="translate(370 250) rotate(0 0 -20)"><path d="M6.84 -21.21 C5.13 -25.92, 3.41 -30.63, 0 -40 M6.84 -21.21 C4.96 -26.38, 3.08 -31.54, 0 -40" stroke="#1e1e1e" stroke-width="1" fill="none"></path></g><g transform="translate(370 250) rotate(0 0 -20)"><path d="M-6.84 -21.21 C-5.13 -25.92, -3.41 -30.63, 0 -40 M-6.84 -21.21 C-4.96 -26.38, -3.08 -31.54, 0 -40" stroke="#1e1e1e" stroke-width="1" fill="none"></path></g></g><mask></mask><g stroke-linecap="round"><g transform="translate(170 250) rotate(0 0 -20)"><path d="M0 0 C0 -6.67, 0 -33.33, 0 -40 M0 0 C0 -6.67, 0 -33.33, 0 -40" stroke="#1e1e1e" stroke-width="1" fill="none"></path></g><g transform="translate(170 250) rotate(0 0 -20)"><path d="M6.84 -21.21 C4.68 -27.14, 2.52 -33.08, 0 -40 M6.84 -21.21 C4.98 -26.31, 3.13 -31.41, 0 -40" stroke="#1e1e1e" stroke-width="1" fill="none"></path></g><g transform="translate(170 250) rotate(0 0 -20)"><path d="M-6.84 -21.21 C-4.68 -27.14, -2.52 -33.08, 0 -40 M-6.84 -21.21 C-4.98 -26.31, -3.13 -31.41, 0 -40" stroke="#1e1e1e" stroke-width="1" fill="none"></path></g></g><mask></mask><g stroke-linecap="round"><g transform="translate(250 250) rotate(0 0 -20)"><path d="M0 0 C0 -6.67, 0 -33.33, 0 -40 M0 0 C0 -6.67, 0 -33.33, 0 -40" stroke="#1e1e1e" stroke-width="1" fill="none"></path></g><g transform="translate(250 250) rotate(0 0 -20)"><path d="M6.84 -21.21 C5.08 -26.06, 3.31 -30.9, 0 -40 M6.84 -21.21 C5.34 -25.33, 3.84 -29.46, 0 -40" stroke="#1e1e1e" stroke-width="1" fill="none"></path></g><g transform="translate(250 250) rotate(0 0 -20)"><path d="M-6.84 -21.21 C-5.08 -26.06, -3.31 -30.9, 0 -40 M-6.84 -21.21 C-5.34 -25.33, -3.84 -29.46, 0 -40" stroke="#1e1e1e" stroke-width="1" fill="none"></path></g></g><mask></mask><g stroke-linecap="round"><g transform="translate(470 130) rotate(0 -30 0)"><path d="M0 0 C-10 0, -50 0, -60 0 M0 0 C-10 0, -50 0, -60 0" stroke="#1e1e1e" stroke-width="1" fill="none"></path></g><g transform="translate(470 130) rotate(0 -30 0)"><path d="M-36.51 -8.55 C-43.72 -5.93, -50.92 -3.3, -60 0 M-36.51 -8.55 C-43.13 -6.14, -49.76 -3.73, -60 0" stroke="#1e1e1e" stroke-width="1" fill="none"></path></g><g transform="translate(470 130) rotate(0 -30 0)"><path d="M-36.51 8.55 C-43.72 5.93, -50.92 3.3, -60 0 M-36.51 8.55 C-43.13 6.14, -49.76 3.73, -60 0" stroke="#1e1e1e" stroke-width="1" fill="none"></path></g></g><mask></mask><g transform="translate(470 110) rotate(0 51.1376953125 23)"><text x="0" y="0" font-family="Helvetica, Segoe UI Emoji" font-size="20px" fill="#1e1e1e" text-anchor="start" style="white-space: pre;" direction="ltr" dominant-baseline="text-before-edge">early_init</text><text x="0" y="23" font-family="Helvetica, Segoe UI Emoji" font-size="20px" fill="#1e1e1e" text-anchor="start" style="white-space: pre;" direction="ltr" dominant-baseline="text-before-edge">with ranges</text></g><g stroke-linecap="round"><g transform="translate(469 190) rotate(0 -29.5 0)"><path d="M0 0 C-9.83 0, -49.17 0, -59 0" stroke="#1e1e1e" stroke-width="1.5" fill="none" stroke-dasharray="1.5 7"></path></g><g transform="translate(469 190) rotate(0 -29.5 0)"><path d="M-35.51 -8.55 C-42.97 -5.84, -50.43 -3.12, -59 0" stroke="#1e1e1e" stroke-width="1.5" fill="none" stroke-dasharray="1.5 5"></path></g><g transform="translate(469 190) rotate(0 -29.5 0)"><path d="M-35.51 8.55 C-42.97 5.84, -50.43 3.12, -59 0" stroke="#1e1e1e" stroke-width="1.5" fill="none" stroke-dasharray="1.5 5"></path></g></g><mask></mask><g transform="translate(470 170) rotate(0 51.1376953125 23)"><text x="0" y="0" font-family="Helvetica, Segoe UI Emoji" font-size="20px" fill="#1e1e1e" text-anchor="start" style="white-space: pre;" direction="ltr" dominant-baseline="text-before-edge">final_init</text><text x="0" y="23" font-family="Helvetica, Segoe UI Emoji" font-size="20px" fill="#1e1e1e" text-anchor="start" style="white-space: pre;" direction="ltr" dominant-baseline="text-before-edge">with ranges</text></g></svg>