<svg version="1.1" xmlns="http://www.w3.org/2000/svg" viewBox="0 0 620 300" width="620" height="300">
  <!-- svg-source:excalidraw -->
  
  <defs>
    <style class="style-fonts">
      @font-face {
        font-family: "Virgil";
        src: url("https://excalidraw.com/Virgil.woff2");
      }
      @font-face {
        font-family: "Cascadia";
        src: url("https://excalidraw.com/Cascadia.woff2");
      }
      @font-face {
        font-family: "Assistant";
        src: url("https://excalidraw.com/Assistant-Regular.woff2");
      }
    </style>
    
  </defs>
  <rect x="0" y="0" width="620" height="300" fill="#ffffff"></rect><g stroke-linecap="round" transform="translate(10 110) rotate(0 100 40)"><path d="M20 0 C53.08 0, 86.16 0, 180 0 M20 0 C58.75 0, 97.49 0, 180 0 M180 0 C193.33 0, 200 6.67, 200 20 M180 0 C193.33 0, 200 6.67, 200 20 M200 20 C200 34.6, 200 49.2, 200 60 M200 20 C200 29.95, 200 39.89, 200 60 M200 60 C200 73.33, 193.33 80, 180 80 M200 60 C200 73.33, 193.33 80, 180 80 M180 80 C121.47 80, 62.94 80, 20 80 M180 80 C127.03 80, 74.07 80, 20 80 M20 80 C6.67 80, 0 73.33, 0 60 M20 80 C6.67 80, 0 73.33, 0 60 M0 60 C0 47.21, 0 34.43, 0 20 M0 60 C0 51.05, 0 42.11, 0 20 M0 20 C0 6.67, 6.67 0, 20 0 M0 20 C0 6.67, 6.67 0, 20 0" stroke="#1e1e1e" stroke-width="2" fill="none"></path></g><g transform="translate(41.6455078125 127) rotate(0 68.3544921875 23)"><text x="68.3544921875" y="0" font-family="Helvetica, Segoe UI Emoji" font-size="20px" fill="#1e1e1e" text-anchor="middle" style="white-space: pre;" direction="ltr" dominant-baseline="text-before-edge">Task</text><text x="68.3544921875" y="23" font-family="Helvetica, Segoe UI Emoji" font-size="20px" fill="#1e1e1e" text-anchor="middle" style="white-space: pre;" direction="ltr" dominant-baseline="text-before-edge">(As a resource)</text></g><g stroke-linecap="round" transform="translate(410 10) rotate(0 100 40)"><path d="M20 0 C56.37 0, 92.73 0, 180 0 M20 0 C53.02 0, 86.05 0, 180 0 M180 0 C193.33 0, 200 6.67, 200 20 M180 0 C193.33 0, 200 6.67, 200 20 M200 20 C200 32.72, 200 45.43, 200 60 M200 20 C200 29.89, 200 39.78, 200 60 M200 60 C200 73.33, 193.33 80, 180 80 M200 60 C200 73.33, 193.33 80, 180 80 M180 80 C119.35 80, 58.71 80, 20 80 M180 80 C132.07 80, 84.14 80, 20 80 M20 80 C6.67 80, 0 73.33, 0 60 M20 80 C6.67 80, 0 73.33, 0 60 M0 60 C0 49.49, 0 38.98, 0 20 M0 60 C0 47.46, 0 34.92, 0 20 M0 20 C0 6.67, 6.67 0, 20 0 M0 20 C0 6.67, 6.67 0, 20 0" stroke="#1e1e1e" stroke-width="1" fill="none"></path></g><g transform="translate(467.763671875 27) rotate(0 42.236328125 23)"><text x="42.236328125" y="0" font-family="Helvetica, Segoe UI Emoji" font-size="20px" fill="#1e1e1e" text-anchor="middle" style="white-space: pre;" direction="ltr" dominant-baseline="text-before-edge">Task</text><text x="42.236328125" y="23" font-family="Helvetica, Segoe UI Emoji" font-size="20px" fill="#1e1e1e" text-anchor="middle" style="white-space: pre;" direction="ltr" dominant-baseline="text-before-edge">(Blocked)</text></g><g stroke-linecap="round" transform="translate(410 110) rotate(0 100 40)"><path d="M20 0 C58.35 0, 96.69 0, 180 0 M20 0 C69.38 0, 118.75 0, 180 0 M180 0 C193.33 0, 200 6.67, 200 20 M180 0 C193.33 0, 200 6.67, 200 20 M200 20 C200 33.95, 200 47.9, 200 60 M200 20 C200 34.47, 200 48.94, 200 60 M200 60 C200 73.33, 193.33 80, 180 80 M200 60 C200 73.33, 193.33 80, 180 80 M180 80 C120.87 80, 61.73 80, 20 80 M180 80 C121.87 80, 63.74 80, 20 80 M20 80 C6.67 80, 0 73.33, 0 60 M20 80 C6.67 80, 0 73.33, 0 60 M0 60 C0 51.3, 0 42.61, 0 20 M0 60 C0 50.77, 0 41.54, 0 20 M0 20 C0 6.67, 6.67 0, 20 0 M0 20 C0 6.67, 6.67 0, 20 0" stroke="#1e1e1e" stroke-width="1" fill="none"></path></g><g transform="translate(467.763671875 127) rotate(0 42.236328125 23)"><text x="42.236328125" y="0" font-family="Helvetica, Segoe UI Emoji" font-size="20px" fill="#1e1e1e" text-anchor="middle" style="white-space: pre;" direction="ltr" dominant-baseline="text-before-edge">Task</text><text x="42.236328125" y="23" font-family="Helvetica, Segoe UI Emoji" font-size="20px" fill="#1e1e1e" text-anchor="middle" style="white-space: pre;" direction="ltr" dominant-baseline="text-before-edge">(Blocked)</text></g><g stroke-linecap="round" transform="translate(410 210) rotate(0 100 40)"><path d="M20 0 C79.89 0, 139.78 0, 180 0 M20 0 C80.7 0, 141.41 0, 180 0 M180 0 C193.33 0, 200 6.67, 200 20 M180 0 C193.33 0, 200 6.67, 200 20 M200 20 C200 34.08, 200 48.16, 200 60 M200 20 C200 34.75, 200 49.51, 200 60 M200 60 C200 73.33, 193.33 80, 180 80 M200 60 C200 73.33, 193.33 80, 180 80 M180 80 C138.01 80, 96.03 80, 20 80 M180 80 C128.04 80, 76.07 80, 20 80 M20 80 C6.67 80, 0 73.33, 0 60 M20 80 C6.67 80, 0 73.33, 0 60 M0 60 C0 49.66, 0 39.33, 0 20 M0 60 C0 51.56, 0 43.12, 0 20 M0 20 C0 6.67, 6.67 0, 20 0 M0 20 C0 6.67, 6.67 0, 20 0" stroke="#1e1e1e" stroke-width="1" fill="none"></path></g><g transform="translate(467.763671875 227) rotate(0 42.236328125 23)"><text x="42.236328125" y="0" font-family="Helvetica, Segoe UI Emoji" font-size="20px" fill="#1e1e1e" text-anchor="middle" style="white-space: pre;" direction="ltr" dominant-baseline="text-before-edge">Task</text><text x="42.236328125" y="23" font-family="Helvetica, Segoe UI Emoji" font-size="20px" fill="#1e1e1e" text-anchor="middle" style="white-space: pre;" direction="ltr" dominant-baseline="text-before-edge">(Blocked)</text></g><g mask="url(#mask-6NPwLzFzvmychV5hH36xw)" stroke-linecap="round"><g transform="translate(410 50) rotate(0 -100 40)"><path d="M0 0 C-33.33 13.33, -166.67 66.67, -200 80 M0 0 C-33.33 13.33, -166.67 66.67, -200 80" stroke="#1e1e1e" stroke-width="1" fill="none"></path></g><g transform="translate(410 50) rotate(0 -100 40)"><path d="M-181.36 63.34 C-188.07 69.33, -194.78 75.33, -200 80 M-181.36 63.34 C-186.3 67.75, -191.24 72.17, -200 80" stroke="#1e1e1e" stroke-width="1" fill="none"></path></g><g transform="translate(410 50) rotate(0 -100 40)"><path d="M-175.01 79.21 C-184.01 79.5, -193 79.78, -200 80 M-175.01 79.21 C-181.64 79.42, -188.26 79.63, -200 80" stroke="#1e1e1e" stroke-width="1" fill="none"></path></g></g><mask id="mask-6NPwLzFzvmychV5hH36xw"><rect x="0" y="0" fill="#fff" width="710" height="230"></rect><rect x="240.5322265625" y="78.5" fill="#000" width="138.935546875" height="23" opacity="1"></rect></mask><g transform="translate(240.5322265625 78.5) rotate(0 69.4677734375 11.5)"><text x="69.4677734375" y="0" font-family="Helvetica, Segoe UI Emoji" font-size="20px" fill="#1e1e1e" text-anchor="middle" style="white-space: pre;" direction="ltr" dominant-baseline="text-before-edge">wait for it to exit</text></g><g mask="url(#mask-dNVby06ThoSEDgShlXrdh)" stroke-linecap="round"><g transform="translate(410 150) rotate(0 -100 0)"><path d="M0 0 C-33.33 0, -166.67 0, -200 0 M0 0 C-33.33 0, -166.67 0, -200 0" stroke="#1e1e1e" stroke-width="1" fill="none"></path></g><g transform="translate(410 150) rotate(0 -100 0)"><path d="M-176.51 -8.55 C-184.46 -5.65, -192.42 -2.76, -200 0 M-176.51 -8.55 C-182.42 -6.4, -188.34 -4.24, -200 0" stroke="#1e1e1e" stroke-width="1" fill="none"></path></g><g transform="translate(410 150) rotate(0 -100 0)"><path d="M-176.51 8.55 C-184.46 5.65, -192.42 2.76, -200 0 M-176.51 8.55 C-182.42 6.4, -188.34 4.24, -200 0" stroke="#1e1e1e" stroke-width="1" fill="none"></path></g></g><mask id="mask-dNVby06ThoSEDgShlXrdh"><rect x="0" y="0" fill="#fff" width="710" height="250"></rect><rect x="240.5322265625" y="138.5" fill="#000" width="138.935546875" height="23" opacity="1"></rect></mask><g transform="translate(240.5322265625 138.5) rotate(0 69.4677734375 11.5)"><text x="69.4677734375" y="0" font-family="Helvetica, Segoe UI Emoji" font-size="20px" fill="#1e1e1e" text-anchor="middle" style="white-space: pre;" direction="ltr" dominant-baseline="text-before-edge">wait for it to exit</text></g><g mask="url(#mask-Zw4tliMZI1G-qW-9ErmO8)" stroke-linecap="round"><g transform="translate(410 250) rotate(0 -100 -40)"><path d="M0 0 C-33.33 -13.33, -166.67 -66.67, -200 -80 M0 0 C-33.33 -13.33, -166.67 -66.67, -200 -80" stroke="#1e1e1e" stroke-width="1" fill="none"></path></g><g transform="translate(410 250) rotate(0 -100 -40)"><path d="M-175.01 -79.21 C-180.87 -79.4, -186.72 -79.58, -200 -80 M-175.01 -79.21 C-182.05 -79.44, -189.09 -79.66, -200 -80" stroke="#1e1e1e" stroke-width="1" fill="none"></path></g><g transform="translate(410 250) rotate(0 -100 -40)"><path d="M-181.36 -63.34 C-185.73 -67.24, -190.1 -71.14, -200 -80 M-181.36 -63.34 C-186.61 -68.03, -191.86 -72.72, -200 -80" stroke="#1e1e1e" stroke-width="1" fill="none"></path></g></g><mask id="mask-Zw4tliMZI1G-qW-9ErmO8"><rect x="0" y="0" fill="#fff" width="710" height="430"></rect><rect x="240.5322265625" y="198.5" fill="#000" width="138.935546875" height="23" opacity="1"></rect></mask><g transform="translate(240.5322265625 198.5) rotate(0 69.4677734375 11.5)"><text x="69.4677734375" y="0" font-family="Helvetica, Segoe UI Emoji" font-size="20px" fill="#1e1e1e" text-anchor="middle" style="white-space: pre;" direction="ltr" dominant-baseline="text-before-edge">wait for it to exit</text></g></svg>