<svg version="1.1" xmlns="http://www.w3.org/2000/svg" viewBox="0 0 1060 468.4" width="1060" height="468.4">
  <!-- svg-source:excalidraw -->
  
  <defs>
    <style class="style-fonts">
      @font-face {
        font-family: "Virgil";
        src: url("https://excalidraw.com/Virgil.woff2");
      }
      @font-face {
        font-family: "Cascadia";
        src: url("https://excalidraw.com/Cascadia.woff2");
      }
      @font-face {
        font-family: "Assistant";
        src: url("https://excalidraw.com/Assistant-Regular.woff2");
      }
    </style>
    
  </defs>
  <rect x="0" y="0" width="1060" height="468.4" fill="#ffffff"></rect><g stroke-linecap="round" transform="translate(10 130) rotate(0 60 110)"><path d="M0 0 C38.54 0, 77.08 0, 120 0 M0 0 C44.55 0, 89.1 0, 120 0 M120 0 C120 67.12, 120 134.23, 120 220 M120 0 C120 69.22, 120 138.45, 120 220 M120 220 C80.41 220, 40.82 220, 0 220 M120 220 C89.58 220, 59.17 220, 0 220 M0 220 C0 171.07, 0 122.15, 0 0 M0 220 C0 157.33, 0 94.66, 0 0" stroke="#1e1e1e" stroke-width="1" fill="none"></path></g><g transform="translate(48.330078125 135) rotate(0 21.669921875 11.5)"><text x="21.669921875" y="0" font-family="Helvetica, Segoe UI Emoji" font-size="20px" fill="#1e1e1e" text-anchor="middle" style="white-space: pre;" direction="ltr" dominant-baseline="text-before-edge">Task</text></g><g stroke-linecap="round" transform="translate(30 170) rotate(0 40 16.5)"><path d="M8.25 0 C26.72 0, 45.18 0, 71.75 0 M8.25 0 C29.34 0, 50.42 0, 71.75 0 M71.75 0 C77.25 0, 80 2.75, 80 8.25 M71.75 0 C77.25 0, 80 2.75, 80 8.25 M80 8.25 C80 13.5, 80 18.75, 80 24.75 M80 8.25 C80 14.25, 80 20.24, 80 24.75 M80 24.75 C80 30.25, 77.25 33, 71.75 33 M80 24.75 C80 30.25, 77.25 33, 71.75 33 M71.75 33 C51.98 33, 32.21 33, 8.25 33 M71.75 33 C52.7 33, 33.64 33, 8.25 33 M8.25 33 C2.75 33, 0 30.25, 0 24.75 M8.25 33 C2.75 33, 0 30.25, 0 24.75 M0 24.75 C0 20.96, 0 17.17, 0 8.25 M0 24.75 C0 20.54, 0 16.32, 0 8.25 M0 8.25 C0 2.75, 2.75 0, 8.25 0 M0 8.25 C0 2.75, 2.75 0, 8.25 0" stroke="#1e1e1e" stroke-width="1" fill="none"></path></g><g transform="translate(47.7685546875 175) rotate(0 22.2314453125 11.5)"><text x="22.2314453125" y="0" font-family="Helvetica, Segoe UI Emoji" font-size="20px" fill="#1e1e1e" text-anchor="middle" style="white-space: pre;" direction="ltr" dominant-baseline="text-before-edge">entry</text></g><g stroke-linecap="round" transform="translate(30 210) rotate(0 40 16.5)"><path d="M8.25 0 C21.09 0, 33.94 0, 71.75 0 M8.25 0 C28.95 0, 49.64 0, 71.75 0 M71.75 0 C77.25 0, 80 2.75, 80 8.25 M71.75 0 C77.25 0, 80 2.75, 80 8.25 M80 8.25 C80 12.81, 80 17.37, 80 24.75 M80 8.25 C80 13.97, 80 19.7, 80 24.75 M80 24.75 C80 30.25, 77.25 33, 71.75 33 M80 24.75 C80 30.25, 77.25 33, 71.75 33 M71.75 33 C51.46 33, 31.17 33, 8.25 33 M71.75 33 C54.8 33, 37.85 33, 8.25 33 M8.25 33 C2.75 33, 0 30.25, 0 24.75 M8.25 33 C2.75 33, 0 30.25, 0 24.75 M0 24.75 C0 20.28, 0 15.81, 0 8.25 M0 24.75 C0 18.4, 0 12.05, 0 8.25 M0 8.25 C0 2.75, 2.75 0, 8.25 0 M0 8.25 C0 2.75, 2.75 0, 8.25 0" stroke="#1e1e1e" stroke-width="1" fill="none"></path></g><g transform="translate(41.66015625 215) rotate(0 28.33984375 11.5)"><text x="28.33984375" y="0" font-family="Helvetica, Segoe UI Emoji" font-size="20px" fill="#1e1e1e" text-anchor="middle" style="white-space: pre;" direction="ltr" dominant-baseline="text-before-edge">kstack</text></g><g stroke-linecap="round" transform="translate(30 250) rotate(0 40 16.5)"><path d="M8.25 0 C28.34 0, 48.42 0, 71.75 0 M8.25 0 C31 0, 53.74 0, 71.75 0 M71.75 0 C77.25 0, 80 2.75, 80 8.25 M71.75 0 C77.25 0, 80 2.75, 80 8.25 M80 8.25 C80 13.05, 80 17.84, 80 24.75 M80 8.25 C80 13.24, 80 18.24, 80 24.75 M80 24.75 C80 30.25, 77.25 33, 71.75 33 M80 24.75 C80 30.25, 77.25 33, 71.75 33 M71.75 33 C56.76 33, 41.77 33, 8.25 33 M71.75 33 C47.39 33, 23.03 33, 8.25 33 M8.25 33 C2.75 33, 0 30.25, 0 24.75 M8.25 33 C2.75 33, 0 30.25, 0 24.75 M0 24.75 C0 20.12, 0 15.48, 0 8.25 M0 24.75 C0 19.35, 0 13.96, 0 8.25 M0 8.25 C0 2.75, 2.75 0, 8.25 0 M0 8.25 C0 2.75, 2.75 0, 8.25 0" stroke="#1e1e1e" stroke-width="1" fill="none"></path></g><g transform="translate(37.7587890625 255) rotate(0 32.2412109375 11.5)"><text x="32.2412109375" y="0" font-family="Helvetica, Segoe UI Emoji" font-size="20px" fill="#1e1e1e" text-anchor="middle" style="white-space: pre;" direction="ltr" dominant-baseline="text-before-edge">context</text></g><g stroke-linecap="round" transform="translate(30 290) rotate(0 40 16.5)"><path d="M8.25 0 C31.67 0, 55.08 0, 71.75 0 M8.25 0 C30.27 0, 52.29 0, 71.75 0 M71.75 0 C77.25 0, 80 2.75, 80 8.25 M71.75 0 C77.25 0, 80 2.75, 80 8.25 M80 8.25 C80 11.56, 80 14.86, 80 24.75 M80 8.25 C80 14.2, 80 20.15, 80 24.75 M80 24.75 C80 30.25, 77.25 33, 71.75 33 M80 24.75 C80 30.25, 77.25 33, 71.75 33 M71.75 33 C50.29 33, 28.82 33, 8.25 33 M71.75 33 C56.48 33, 41.22 33, 8.25 33 M8.25 33 C2.75 33, 0 30.25, 0 24.75 M8.25 33 C2.75 33, 0 30.25, 0 24.75 M0 24.75 C0 19.32, 0 13.89, 0 8.25 M0 24.75 C0 19.81, 0 14.88, 0 8.25 M0 8.25 C0 2.75, 2.75 0, 8.25 0 M0 8.25 C0 2.75, 2.75 0, 8.25 0" stroke="#1e1e1e" stroke-width="1" fill="none"></path></g><g transform="translate(43.3203125 295) rotate(0 26.6796875 11.5)"><text x="26.6796875" y="0" font-family="Helvetica, Segoe UI Emoji" font-size="20px" fill="#1e1e1e" text-anchor="middle" style="white-space: pre;" direction="ltr" dominant-baseline="text-before-edge">status</text></g><g transform="translate(10 390) rotate(0 60 23)"><text x="0" y="0" font-family="Helvetica, Segoe UI Emoji" font-size="20px" fill="#1e1e1e" text-anchor="start" style="white-space: pre;" direction="ltr" dominant-baseline="text-before-edge">  Ready状态</text><text x="0" y="23" font-family="Helvetica, Segoe UI Emoji" font-size="20px" fill="#1e1e1e" text-anchor="start" style="white-space: pre;" direction="ltr" dominant-baseline="text-before-edge">（首次创建）</text></g><g mask="url(#mask-aV-m5jDFcmx-8TKQkhTOI)" stroke-linecap="round"><g transform="translate(131 250) rotate(0 49 0)"><path d="M0 0 C16.33 0, 81.67 0, 98 0 M0 0 C16.33 0, 81.67 0, 98 0" stroke="#1e1e1e" stroke-width="1" fill="none"></path></g><g transform="translate(131 250) rotate(0 49 0)"><path d="M74.51 8.55 C82.84 5.52, 91.17 2.48, 98 0 M74.51 8.55 C83.59 5.25, 92.67 1.94, 98 0" stroke="#1e1e1e" stroke-width="1" fill="none"></path></g><g transform="translate(131 250) rotate(0 49 0)"><path d="M74.51 -8.55 C82.84 -5.52, 91.17 -2.48, 98 0 M74.51 -8.55 C83.59 -5.25, 92.67 -1.94, 98 0" stroke="#1e1e1e" stroke-width="1" fill="none"></path></g></g><mask id="mask-aV-m5jDFcmx-8TKQkhTOI"><rect x="0" y="0" fill="#fff" width="329" height="350"></rect><rect x="156" y="231.60000000000002" fill="#000" width="48" height="36.8" opacity="1"></rect></mask><g transform="translate(156 231.60000000000002) rotate(0 24 18.399999999999977)"><text x="24" y="0" font-family="Helvetica, Segoe UI Emoji" font-size="16px" fill="#1e1e1e" text-anchor="middle" style="white-space: pre;" direction="ltr" dominant-baseline="text-before-edge">被调度</text><text x="24" y="18.4" font-family="Helvetica, Segoe UI Emoji" font-size="16px" fill="#1e1e1e" text-anchor="middle" style="white-space: pre;" direction="ltr" dominant-baseline="text-before-edge">进来</text></g><g stroke-linecap="round" transform="translate(230 130) rotate(0 60 110)"><path d="M0 0 C42.3 0, 84.61 0, 120 0 M0 0 C28.36 0, 56.72 0, 120 0 M120 0 C120 59.95, 120 119.91, 120 220 M120 0 C120 76.34, 120 152.67, 120 220 M120 220 C72.99 220, 25.98 220, 0 220 M120 220 C74.24 220, 28.47 220, 0 220 M0 220 C0 136.8, 0 53.6, 0 0 M0 220 C0 152.11, 0 84.22, 0 0" stroke="#1e1e1e" stroke-width="1" fill="none"></path></g><g transform="translate(268.330078125 135) rotate(0 21.669921875 11.5)"><text x="21.669921875" y="0" font-family="Helvetica, Segoe UI Emoji" font-size="20px" fill="#1e1e1e" text-anchor="middle" style="white-space: pre;" direction="ltr" dominant-baseline="text-before-edge">Task</text></g><g stroke-linecap="round" transform="translate(250 210) rotate(0 40 16.5)"><path d="M8.25 0 C24.39 0, 40.52 0, 71.75 0 M8.25 0 C23.46 0, 38.68 0, 71.75 0 M71.75 0 C77.25 0, 80 2.75, 80 8.25 M71.75 0 C77.25 0, 80 2.75, 80 8.25 M80 8.25 C80 13.95, 80 19.65, 80 24.75 M80 8.25 C80 11.78, 80 15.32, 80 24.75 M80 24.75 C80 30.25, 77.25 33, 71.75 33 M80 24.75 C80 30.25, 77.25 33, 71.75 33 M71.75 33 C57.45 33, 43.16 33, 8.25 33 M71.75 33 C49.75 33, 27.76 33, 8.25 33 M8.25 33 C2.75 33, 0 30.25, 0 24.75 M8.25 33 C2.75 33, 0 30.25, 0 24.75 M0 24.75 C0 21.32, 0 17.9, 0 8.25 M0 24.75 C0 18.15, 0 11.55, 0 8.25 M0 8.25 C0 2.75, 2.75 0, 8.25 0 M0 8.25 C0 2.75, 2.75 0, 8.25 0" stroke="#1e1e1e" stroke-width="1" fill="none"></path></g><g transform="translate(261.66015625 215) rotate(0 28.33984375 11.5)"><text x="28.33984375" y="0" font-family="Helvetica, Segoe UI Emoji" font-size="20px" fill="#1e1e1e" text-anchor="middle" style="white-space: pre;" direction="ltr" dominant-baseline="text-before-edge">kstack</text></g><g stroke-linecap="round" transform="translate(250 290) rotate(0 40 16.5)"><path d="M8.25 0 C29.87 0, 51.48 0, 71.75 0 M8.25 0 C30.2 0, 52.16 0, 71.75 0 M71.75 0 C77.25 0, 80 2.75, 80 8.25 M71.75 0 C77.25 0, 80 2.75, 80 8.25 M80 8.25 C80 14.44, 80 20.63, 80 24.75 M80 8.25 C80 14.74, 80 21.23, 80 24.75 M80 24.75 C80 30.25, 77.25 33, 71.75 33 M80 24.75 C80 30.25, 77.25 33, 71.75 33 M71.75 33 C47.65 33, 23.55 33, 8.25 33 M71.75 33 C57.85 33, 43.95 33, 8.25 33 M8.25 33 C2.75 33, 0 30.25, 0 24.75 M8.25 33 C2.75 33, 0 30.25, 0 24.75 M0 24.75 C0 20.64, 0 16.54, 0 8.25 M0 24.75 C0 19.5, 0 14.25, 0 8.25 M0 8.25 C0 2.75, 2.75 0, 8.25 0 M0 8.25 C0 2.75, 2.75 0, 8.25 0" stroke="#1e1e1e" stroke-width="1" fill="none"></path></g><g transform="translate(263.3203125 295) rotate(0 26.6796875 11.5)"><text x="26.6796875" y="0" font-family="Helvetica, Segoe UI Emoji" font-size="20px" fill="#1e1e1e" text-anchor="middle" style="white-space: pre;" direction="ltr" dominant-baseline="text-before-edge">status</text></g><g transform="translate(230 390) rotate(0 60.029296875 11.5)"><text x="0" y="0" font-family="Helvetica, Segoe UI Emoji" font-size="20px" fill="#1e1e1e" text-anchor="start" style="white-space: pre;" direction="ltr" dominant-baseline="text-before-edge"> Running状态</text></g><g stroke-linecap="round" transform="translate(230 430) rotate(0 60 14.199999999999989)"><path d="M7.1 0 C32.09 0, 57.07 0, 112.9 0 C117.63 0, 120 2.37, 120 7.1 C120 11.41, 120 15.72, 120 21.3 C120 26.03, 117.63 28.4, 112.9 28.4 C90.33 28.4, 67.76 28.4, 7.1 28.4 C2.37 28.4, 0 26.03, 0 21.3 C0 17.66, 0 14.02, 0 7.1 C0 2.37, 2.37 0, 7.1 0" stroke="none" stroke-width="0" fill="#ffc9c9"></path><path d="M7.1 0 C33.29 0, 59.47 0, 112.9 0 M7.1 0 C30.03 0, 52.97 0, 112.9 0 M112.9 0 C117.63 0, 120 2.37, 120 7.1 M112.9 0 C117.63 0, 120 2.37, 120 7.1 M120 7.1 C120 12, 120 16.91, 120 21.3 M120 7.1 C120 10.84, 120 14.57, 120 21.3 M120 21.3 C120 26.03, 117.63 28.4, 112.9 28.4 M120 21.3 C120 26.03, 117.63 28.4, 112.9 28.4 M112.9 28.4 C73.94 28.4, 34.97 28.4, 7.1 28.4 M112.9 28.4 C91.45 28.4, 69.99 28.4, 7.1 28.4 M7.1 28.4 C2.37 28.4, 0 26.03, 0 21.3 M7.1 28.4 C2.37 28.4, 0 26.03, 0 21.3 M0 21.3 C0 15.81, 0 10.32, 0 7.1 M0 21.3 C0 16.98, 0 12.67, 0 7.1 M0 7.1 C0 2.37, 2.37 0, 7.1 0 M0 7.1 C0 2.37, 2.37 0, 7.1 0" stroke="#1e1e1e" stroke-width="1" fill="none"></path></g><g transform="translate(245.98828125 435) rotate(0 44.01171875 9.199999999999989)"><text x="44.01171875" y="0" font-family="Helvetica, Segoe UI Emoji" font-size="16px" fill="#1e1e1e" text-anchor="middle" style="white-space: pre;" direction="ltr" dominant-baseline="text-before-edge">CurrentTask</text></g><g stroke-linecap="round" transform="translate(490 130) rotate(0 60 110)"><path d="M0 0 C24.41 0, 48.81 0, 120 0 M120 0 C120 80.82, 120 161.64, 120 220 M120 220 C93.31 220, 66.62 220, 0 220 M0 220 C0 168.78, 0 117.55, 0 0" stroke="#1e1e1e" stroke-width="1.5" fill="none" stroke-dasharray="8 9"></path></g><g transform="translate(528.330078125 135) rotate(0 21.669921875 11.5)"><text x="21.669921875" y="0" font-family="Helvetica, Segoe UI Emoji" font-size="20px" fill="#1e1e1e" text-anchor="middle" style="white-space: pre;" direction="ltr" dominant-baseline="text-before-edge">Task</text></g><g stroke-linecap="round" transform="translate(510 290) rotate(0 40 16.5)"><path d="M8.25 0 C21.36 0, 34.47 0, 71.75 0 M71.75 0 C77.25 0, 80 2.75, 80 8.25 M80 8.25 C80 14.24, 80 20.22, 80 24.75 M80 24.75 C80 30.25, 77.25 33, 71.75 33 M71.75 33 C53.96 33, 36.17 33, 8.25 33 M8.25 33 C2.75 33, 0 30.25, 0 24.75 M0 24.75 C0 19.67, 0 14.59, 0 8.25 M0 8.25 C0 2.75, 2.75 0, 8.25 0" stroke="#1e1e1e" stroke-width="1.5" fill="none" stroke-dasharray="8 9"></path></g><g transform="translate(523.3203125 295) rotate(0 26.6796875 11.5)"><text x="26.6796875" y="0" font-family="Helvetica, Segoe UI Emoji" font-size="20px" fill="#1e1e1e" text-anchor="middle" style="white-space: pre;" direction="ltr" dominant-baseline="text-before-edge">status</text></g><g transform="translate(470 390) rotate(0 77.2607421875 23)"><text x="0" y="0" font-family="Helvetica, Segoe UI Emoji" font-size="20px" fill="#1e1e1e" text-anchor="start" style="white-space: pre;" direction="ltr" dominant-baseline="text-before-edge"> Blocked或Ready</text><text x="0" y="23" font-family="Helvetica, Segoe UI Emoji" font-size="20px" fill="#1e1e1e" text-anchor="start" style="white-space: pre;" direction="ltr" dominant-baseline="text-before-edge">(根据调度的原因)</text></g><g stroke-linecap="round" transform="translate(510 250) rotate(0 40 16.5)"><path d="M8.25 0 C22.21 0, 36.16 0, 71.75 0 M71.75 0 C77.25 0, 80 2.75, 80 8.25 M80 8.25 C80 12.84, 80 17.42, 80 24.75 M80 24.75 C80 30.25, 77.25 33, 71.75 33 M71.75 33 C52.8 33, 33.86 33, 8.25 33 M8.25 33 C2.75 33, 0 30.25, 0 24.75 M0 24.75 C0 19.99, 0 15.24, 0 8.25 M0 8.25 C0 2.75, 2.75 0, 8.25 0" stroke="#1e1e1e" stroke-width="1.5" fill="none" stroke-dasharray="8 9"></path></g><g transform="translate(517.7587890625 255) rotate(0 32.2412109375 11.5)"><text x="32.2412109375" y="0" font-family="Helvetica, Segoe UI Emoji" font-size="20px" fill="#1e1e1e" text-anchor="middle" style="white-space: pre;" direction="ltr" dominant-baseline="text-before-edge">context</text></g><g mask="url(#mask-xDLYoDrzXNgV2p24MLfTn)" stroke-linecap="round"><g transform="translate(351 250) rotate(0 49.5 0)"><path d="M0 0 C16.5 0, 82.5 0, 99 0 M0 0 C16.5 0, 82.5 0, 99 0" stroke="#1e1e1e" stroke-width="1" fill="none"></path></g><g transform="translate(351 250) rotate(0 49.5 0)"><path d="M75.51 8.55 C82 6.19, 88.49 3.82, 99 0 M75.51 8.55 C84.84 5.15, 94.17 1.76, 99 0" stroke="#1e1e1e" stroke-width="1" fill="none"></path></g><g transform="translate(351 250) rotate(0 49.5 0)"><path d="M75.51 -8.55 C82 -6.19, 88.49 -3.82, 99 0 M75.51 -8.55 C84.84 -5.15, 94.17 -1.76, 99 0" stroke="#1e1e1e" stroke-width="1" fill="none"></path></g></g><mask id="mask-xDLYoDrzXNgV2p24MLfTn"><rect x="0" y="0" fill="#fff" width="550" height="350"></rect><rect x="376.5" y="231.60000000000002" fill="#000" width="48" height="36.8" opacity="1"></rect></mask><g transform="translate(376.5 231.60000000000002) rotate(0 24 18.399999999999977)"><text x="24" y="0" font-family="Helvetica, Segoe UI Emoji" font-size="16px" fill="#1e1e1e" text-anchor="middle" style="white-space: pre;" direction="ltr" dominant-baseline="text-before-edge">被调度</text><text x="24" y="18.4" font-family="Helvetica, Segoe UI Emoji" font-size="16px" fill="#1e1e1e" text-anchor="middle" style="white-space: pre;" direction="ltr" dominant-baseline="text-before-edge">出去</text></g><g mask="url(#mask-4rYOnMPL_qscGmflw2smJ)" stroke-linecap="round"><g transform="translate(450 250) rotate(0 0 -96.5)"><path d="M0 0 C0 -32.17, 0 -160.83, 0 -193 M0 0 C0 -32.17, 0 -160.83, 0 -193" stroke="#1e1e1e" stroke-width="1" fill="none"></path></g><g transform="translate(450 250) rotate(0 0 -96.5)"><path d="M8.55 -169.51 C6.76 -174.43, 4.97 -179.35, 0 -193 M8.55 -169.51 C6.4 -175.43, 4.24 -181.35, 0 -193" stroke="#1e1e1e" stroke-width="1" fill="none"></path></g><g transform="translate(450 250) rotate(0 0 -96.5)"><path d="M-8.55 -169.51 C-6.76 -174.43, -4.97 -179.35, 0 -193 M-8.55 -169.51 C-6.4 -175.43, -4.24 -181.35, 0 -193" stroke="#1e1e1e" stroke-width="1" fill="none"></path></g></g><mask id="mask-4rYOnMPL_qscGmflw2smJ"><rect x="0" y="0" fill="#fff" width="550" height="543"></rect><rect x="426" y="135.10000000000002" fill="#000" width="48" height="36.8" opacity="1"></rect></mask><g transform="translate(426 135.10000000000002) rotate(0 24 18.399999999999977)"><text x="24" y="0" font-family="Helvetica, Segoe UI Emoji" font-size="16px" fill="#1e1e1e" text-anchor="middle" style="white-space: pre;" direction="ltr" dominant-baseline="text-before-edge">保存</text><text x="24" y="18.4" font-family="Helvetica, Segoe UI Emoji" font-size="16px" fill="#1e1e1e" text-anchor="middle" style="white-space: pre;" direction="ltr" dominant-baseline="text-before-edge">上下文</text></g><g mask="url(#mask-9Qa_-3LSmqxilqjEEx4vK)" stroke-linecap="round"><g transform="translate(650 50) rotate(0 0 100)"><path d="M0 0 C0 33.33, 0 166.67, 0 200 M0 0 C0 33.33, 0 166.67, 0 200" stroke="#1e1e1e" stroke-width="1" fill="none"></path></g><g transform="translate(650 50) rotate(0 0 100)"><path d="M-8.55 176.51 C-6.28 182.75, -4.01 188.99, 0 200 M-8.55 176.51 C-5.76 184.17, -2.97 191.84, 0 200" stroke="#1e1e1e" stroke-width="1" fill="none"></path></g><g transform="translate(650 50) rotate(0 0 100)"><path d="M8.55 176.51 C6.28 182.75, 4.01 188.99, 0 200 M8.55 176.51 C5.76 184.17, 2.97 191.84, 0 200" stroke="#1e1e1e" stroke-width="1" fill="none"></path></g></g><mask id="mask-9Qa_-3LSmqxilqjEEx4vK"><rect x="0" y="0" fill="#fff" width="750" height="350"></rect><rect x="626" y="131.60000000000002" fill="#000" width="48" height="36.8" opacity="1"></rect></mask><g transform="translate(626 131.60000000000002) rotate(0 24 18.399999999999977)"><text x="24" y="0" font-family="Helvetica, Segoe UI Emoji" font-size="16px" fill="#1e1e1e" text-anchor="middle" style="white-space: pre;" direction="ltr" dominant-baseline="text-before-edge">恢复</text><text x="24" y="18.4" font-family="Helvetica, Segoe UI Emoji" font-size="16px" fill="#1e1e1e" text-anchor="middle" style="white-space: pre;" direction="ltr" dominant-baseline="text-before-edge">上下文</text></g><g stroke-linecap="round"><g transform="translate(650 250) rotate(0 39.5 0)"><path d="M0 0 C13.17 0, 65.83 0, 79 0 M0 0 C13.17 0, 65.83 0, 79 0" stroke="#1e1e1e" stroke-width="1" fill="none"></path></g><g transform="translate(650 250) rotate(0 39.5 0)"><path d="M55.51 8.55 C63.11 5.78, 70.72 3.01, 79 0 M55.51 8.55 C60.82 6.62, 66.13 4.68, 79 0" stroke="#1e1e1e" stroke-width="1" fill="none"></path></g><g transform="translate(650 250) rotate(0 39.5 0)"><path d="M55.51 -8.55 C63.11 -5.78, 70.72 -3.01, 79 0 M55.51 -8.55 C60.82 -6.62, 66.13 -4.68, 79 0" stroke="#1e1e1e" stroke-width="1" fill="none"></path></g></g><mask></mask><g stroke-linecap="round" transform="translate(730 130) rotate(0 60 110)"><path d="M0 0 C43.41 0, 86.81 0, 120 0 M0 0 C32.92 0, 65.85 0, 120 0 M120 0 C120 64.11, 120 128.22, 120 220 M120 0 C120 83.48, 120 166.97, 120 220 M120 220 C92.15 220, 64.3 220, 0 220 M120 220 C90.26 220, 60.52 220, 0 220 M0 220 C0 153.16, 0 86.31, 0 0 M0 220 C0 173.34, 0 126.69, 0 0" stroke="#1e1e1e" stroke-width="1" fill="none"></path></g><g transform="translate(768.330078125 135) rotate(0 21.669921875 11.5)"><text x="21.669921875" y="0" font-family="Helvetica, Segoe UI Emoji" font-size="20px" fill="#1e1e1e" text-anchor="middle" style="white-space: pre;" direction="ltr" dominant-baseline="text-before-edge">Task</text></g><g stroke-linecap="round" transform="translate(750 210) rotate(0 40 16.5)"><path d="M8.25 0 C27.07 0, 45.89 0, 71.75 0 M8.25 0 C30.76 0, 53.27 0, 71.75 0 M71.75 0 C77.25 0, 80 2.75, 80 8.25 M71.75 0 C77.25 0, 80 2.75, 80 8.25 M80 8.25 C80 13.45, 80 18.65, 80 24.75 M80 8.25 C80 11.8, 80 15.34, 80 24.75 M80 24.75 C80 30.25, 77.25 33, 71.75 33 M80 24.75 C80 30.25, 77.25 33, 71.75 33 M71.75 33 C57.13 33, 42.5 33, 8.25 33 M71.75 33 C53.25 33, 34.75 33, 8.25 33 M8.25 33 C2.75 33, 0 30.25, 0 24.75 M8.25 33 C2.75 33, 0 30.25, 0 24.75 M0 24.75 C0 19.15, 0 13.54, 0 8.25 M0 24.75 C0 18.37, 0 12, 0 8.25 M0 8.25 C0 2.75, 2.75 0, 8.25 0 M0 8.25 C0 2.75, 2.75 0, 8.25 0" stroke="#1e1e1e" stroke-width="1" fill="none"></path></g><g transform="translate(761.66015625 215) rotate(0 28.33984375 11.5)"><text x="28.33984375" y="0" font-family="Helvetica, Segoe UI Emoji" font-size="20px" fill="#1e1e1e" text-anchor="middle" style="white-space: pre;" direction="ltr" dominant-baseline="text-before-edge">kstack</text></g><g stroke-linecap="round" transform="translate(750 290) rotate(0 40 16.5)"><path d="M8.25 0 C23.25 0, 38.24 0, 71.75 0 M8.25 0 C27.47 0, 46.68 0, 71.75 0 M71.75 0 C77.25 0, 80 2.75, 80 8.25 M71.75 0 C77.25 0, 80 2.75, 80 8.25 M80 8.25 C80 12.02, 80 15.8, 80 24.75 M80 8.25 C80 13.11, 80 17.97, 80 24.75 M80 24.75 C80 30.25, 77.25 33, 71.75 33 M80 24.75 C80 30.25, 77.25 33, 71.75 33 M71.75 33 C56.78 33, 41.81 33, 8.25 33 M71.75 33 C56 33, 40.25 33, 8.25 33 M8.25 33 C2.75 33, 0 30.25, 0 24.75 M8.25 33 C2.75 33, 0 30.25, 0 24.75 M0 24.75 C0 21.12, 0 17.48, 0 8.25 M0 24.75 C0 18.87, 0 12.99, 0 8.25 M0 8.25 C0 2.75, 2.75 0, 8.25 0 M0 8.25 C0 2.75, 2.75 0, 8.25 0" stroke="#1e1e1e" stroke-width="1" fill="none"></path></g><g transform="translate(763.3203125 295) rotate(0 26.6796875 11.5)"><text x="26.6796875" y="0" font-family="Helvetica, Segoe UI Emoji" font-size="20px" fill="#1e1e1e" text-anchor="middle" style="white-space: pre;" direction="ltr" dominant-baseline="text-before-edge">status</text></g><g transform="translate(730 390) rotate(0 60.029296875 11.5)"><text x="0" y="0" font-family="Helvetica, Segoe UI Emoji" font-size="20px" fill="#1e1e1e" text-anchor="start" style="white-space: pre;" direction="ltr" dominant-baseline="text-before-edge"> Running状态</text></g><g stroke-linecap="round" transform="translate(690 10) rotate(0 100 20)"><path d="M10 0 C77.79 0, 145.58 0, 190 0 M190 0 C196.67 0, 200 3.33, 200 10 M200 10 C200 14.95, 200 19.9, 200 30 M200 30 C200 36.67, 196.67 40, 190 40 M190 40 C152.28 40, 114.56 40, 10 40 M10 40 C3.33 40, 0 36.67, 0 30 M0 30 C0 22.52, 0 15.03, 0 10 M0 10 C0 3.33, 3.33 0, 10 0" stroke="#1e1e1e" stroke-width="1.5" fill="none" stroke-dasharray="1.5 7"></path></g><g transform="translate(727.2216796875 18.5) rotate(0 62.7783203125 11.5)"><text x="62.7783203125" y="0" font-family="Helvetica, Segoe UI Emoji" font-size="20px" fill="#1e1e1e" text-anchor="middle" style="white-space: pre;" direction="ltr" dominant-baseline="text-before-edge">异常/中断处理</text></g><g mask="url(#mask-9Z-5WF5dR8QS8A_s1Cgqd)" stroke-linecap="round"><g transform="translate(730 130) rotate(0 0 -40)"><path d="M0 0 C0 -13.33, 0 -66.67, 0 -80 M0 0 C0 -13.33, 0 -66.67, 0 -80" stroke="#1e1e1e" stroke-width="1" fill="none"></path></g><g transform="translate(730 130) rotate(0 0 -40)"><path d="M8.55 -56.51 C6.6 -61.86, 4.66 -67.21, 0 -80 M8.55 -56.51 C6.69 -61.63, 4.82 -66.75, 0 -80" stroke="#1e1e1e" stroke-width="1" fill="none"></path></g><g transform="translate(730 130) rotate(0 0 -40)"><path d="M-8.55 -56.51 C-6.6 -61.86, -4.66 -67.21, 0 -80 M-8.55 -56.51 C-6.69 -61.63, -4.82 -66.75, 0 -80" stroke="#1e1e1e" stroke-width="1" fill="none"></path></g></g><mask id="mask-9Z-5WF5dR8QS8A_s1Cgqd"><rect x="0" y="0" fill="#fff" width="830" height="310"></rect><rect x="690.4375" y="71.60000000000002" fill="#000" width="79.125" height="36.8" opacity="1"></rect></mask><g transform="translate(690.4375 71.6) rotate(0 39.5625 18.400000000000006)"><text x="39.5625" y="0" font-family="Helvetica, Segoe UI Emoji" font-size="16px" fill="#1e1e1e" text-anchor="middle" style="white-space: pre;" direction="ltr" dominant-baseline="text-before-edge">TrapFrame</text><text x="39.5625" y="18.4" font-family="Helvetica, Segoe UI Emoji" font-size="16px" fill="#1e1e1e" text-anchor="middle" style="white-space: pre;" direction="ltr" dominant-baseline="text-before-edge">压栈</text></g><g mask="url(#mask-bdbMxMhdBgxMS1wVp0eLl)" stroke-linecap="round"><g transform="translate(850 50) rotate(0 0 40)"><path d="M0 0 C0 13.33, 0 66.67, 0 80 M0 0 C0 13.33, 0 66.67, 0 80" stroke="#1e1e1e" stroke-width="1" fill="none"></path></g><g transform="translate(850 50) rotate(0 0 40)"><path d="M-8.55 56.51 C-6.83 61.23, -5.11 65.96, 0 80 M-8.55 56.51 C-6.56 61.96, -4.58 67.42, 0 80" stroke="#1e1e1e" stroke-width="1" fill="none"></path></g><g transform="translate(850 50) rotate(0 0 40)"><path d="M8.55 56.51 C6.83 61.23, 5.11 65.96, 0 80 M8.55 56.51 C6.56 61.96, 4.58 67.42, 0 80" stroke="#1e1e1e" stroke-width="1" fill="none"></path></g></g><mask id="mask-bdbMxMhdBgxMS1wVp0eLl"><rect x="0" y="0" fill="#fff" width="950" height="230"></rect><rect x="810.4375" y="71.60000000000002" fill="#000" width="79.125" height="36.8" opacity="1"></rect></mask><g transform="translate(810.4375 71.6) rotate(0 39.5625 18.400000000000006)"><text x="39.5625" y="0" font-family="Helvetica, Segoe UI Emoji" font-size="16px" fill="#1e1e1e" text-anchor="middle" style="white-space: pre;" direction="ltr" dominant-baseline="text-before-edge">TrapFrame</text><text x="39.5625" y="18.4" font-family="Helvetica, Segoe UI Emoji" font-size="16px" fill="#1e1e1e" text-anchor="middle" style="white-space: pre;" direction="ltr" dominant-baseline="text-before-edge">出栈</text></g><g stroke-linecap="round" transform="translate(450 10) rotate(0 100 20)"><path d="M10 0 C71.92 0, 133.84 0, 190 0 M10 0 C68.39 0, 126.78 0, 190 0 M190 0 C196.67 0, 200 3.33, 200 10 M190 0 C196.67 0, 200 3.33, 200 10 M200 10 C200 15.21, 200 20.42, 200 30 M200 10 C200 15.48, 200 20.95, 200 30 M200 30 C200 36.67, 196.67 40, 190 40 M200 30 C200 36.67, 196.67 40, 190 40 M190 40 C133.1 40, 76.19 40, 10 40 M190 40 C118.76 40, 47.51 40, 10 40 M10 40 C3.33 40, 0 36.67, 0 30 M10 40 C3.33 40, 0 36.67, 0 30 M0 30 C0 25.05, 0 20.1, 0 10 M0 30 C0 25.41, 0 20.81, 0 10 M0 10 C0 3.33, 3.33 0, 10 0 M0 10 C0 3.33, 3.33 0, 10 0" stroke="#1e1e1e" stroke-width="1" fill="none"></path></g><g transform="translate(490.52734375 18.5) rotate(0 59.47265625 11.5)"><text x="59.47265625" y="0" font-family="Helvetica, Segoe UI Emoji" font-size="20px" fill="#1e1e1e" text-anchor="middle" style="white-space: pre;" direction="ltr" dominant-baseline="text-before-edge">Another Task</text></g><g stroke-linecap="round" transform="translate(730 430) rotate(0 60 14.199999999999989)"><path d="M7.1 0 C32.57 0, 58.04 0, 112.9 0 C117.63 0, 120 2.37, 120 7.1 C120 10.73, 120 14.36, 120 21.3 C120 26.03, 117.63 28.4, 112.9 28.4 C86.97 28.4, 61.03 28.4, 7.1 28.4 C2.37 28.4, 0 26.03, 0 21.3 C0 16.88, 0 12.47, 0 7.1 C0 2.37, 2.37 0, 7.1 0" stroke="none" stroke-width="0" fill="#ffc9c9"></path><path d="M7.1 0 C43.17 0, 79.25 0, 112.9 0 M7.1 0 C42.31 0, 77.51 0, 112.9 0 M112.9 0 C117.63 0, 120 2.37, 120 7.1 M112.9 0 C117.63 0, 120 2.37, 120 7.1 M120 7.1 C120 11.6, 120 16.1, 120 21.3 M120 7.1 C120 10.6, 120 14.1, 120 21.3 M120 21.3 C120 26.03, 117.63 28.4, 112.9 28.4 M120 21.3 C120 26.03, 117.63 28.4, 112.9 28.4 M112.9 28.4 C86.01 28.4, 59.11 28.4, 7.1 28.4 M112.9 28.4 C78.2 28.4, 43.49 28.4, 7.1 28.4 M7.1 28.4 C2.37 28.4, 0 26.03, 0 21.3 M7.1 28.4 C2.37 28.4, 0 26.03, 0 21.3 M0 21.3 C0 18.25, 0 15.19, 0 7.1 M0 21.3 C0 17.43, 0 13.56, 0 7.1 M0 7.1 C0 2.37, 2.37 0, 7.1 0 M0 7.1 C0 2.37, 2.37 0, 7.1 0" stroke="#1e1e1e" stroke-width="1" fill="none"></path></g><g transform="translate(745.98828125 435) rotate(0 44.01171875 9.199999999999989)"><text x="44.01171875" y="0" font-family="Helvetica, Segoe UI Emoji" font-size="16px" fill="#1e1e1e" text-anchor="middle" style="white-space: pre;" direction="ltr" dominant-baseline="text-before-edge">CurrentTask</text></g><g stroke-linecap="round" transform="translate(930 130) rotate(0 60 110)"><path d="M0 0 C34.96 0, 69.92 0, 120 0 M120 0 C120 76.06, 120 152.11, 120 220 M120 220 C79.19 220, 38.39 220, 0 220 M0 220 C0 144.48, 0 68.97, 0 0" stroke="#1e1e1e" stroke-width="1.5" fill="none" stroke-dasharray="8 9"></path></g><g transform="translate(968.330078125 135) rotate(0 21.669921875 11.5)"><text x="21.669921875" y="0" font-family="Helvetica, Segoe UI Emoji" font-size="20px" fill="#1e1e1e" text-anchor="middle" style="white-space: pre;" direction="ltr" dominant-baseline="text-before-edge">Task</text></g><g stroke-linecap="round" transform="translate(950 210) rotate(0 40 16.5)"><path d="M8.25 0 C27.1 0, 45.96 0, 71.75 0 M71.75 0 C77.25 0, 80 2.75, 80 8.25 M80 8.25 C80 12.85, 80 17.45, 80 24.75 M80 24.75 C80 30.25, 77.25 33, 71.75 33 M71.75 33 C54.3 33, 36.85 33, 8.25 33 M8.25 33 C2.75 33, 0 30.25, 0 24.75 M0 24.75 C0 21.21, 0 17.67, 0 8.25 M0 8.25 C0 2.75, 2.75 0, 8.25 0" stroke="#1e1e1e" stroke-width="1.5" fill="none" stroke-dasharray="8 9"></path></g><g transform="translate(961.66015625 215) rotate(0 28.33984375 11.5)"><text x="28.33984375" y="0" font-family="Helvetica, Segoe UI Emoji" font-size="20px" fill="#1e1e1e" text-anchor="middle" style="white-space: pre;" direction="ltr" dominant-baseline="text-before-edge">kstack</text></g><g stroke-linecap="round" transform="translate(950 290) rotate(0 40 16.5)"><path d="M8.25 0 C23.85 0, 39.44 0, 71.75 0 M71.75 0 C77.25 0, 80 2.75, 80 8.25 M80 8.25 C80 12.53, 80 16.8, 80 24.75 M80 24.75 C80 30.25, 77.25 33, 71.75 33 M71.75 33 C50.43 33, 29.1 33, 8.25 33 M8.25 33 C2.75 33, 0 30.25, 0 24.75 M0 24.75 C0 19.09, 0 13.42, 0 8.25 M0 8.25 C0 2.75, 2.75 0, 8.25 0" stroke="#1e1e1e" stroke-width="1.5" fill="none" stroke-dasharray="8 9"></path></g><g transform="translate(963.3203125 295) rotate(0 26.6796875 11.5)"><text x="26.6796875" y="0" font-family="Helvetica, Segoe UI Emoji" font-size="20px" fill="#1e1e1e" text-anchor="middle" style="white-space: pre;" direction="ltr" dominant-baseline="text-before-edge">status</text></g><g mask="url(#mask-KKOyPFGOdmxg2x4qsy1yO)" stroke-linecap="round"><g transform="translate(850 250) rotate(0 39.5 0)"><path d="M0 0 C13.17 0, 65.83 0, 79 0 M0 0 C13.17 0, 65.83 0, 79 0" stroke="#1e1e1e" stroke-width="1" fill="none"></path></g><g transform="translate(850 250) rotate(0 39.5 0)"><path d="M55.51 8.55 C60.52 6.73, 65.52 4.91, 79 0 M55.51 8.55 C63.78 5.54, 72.06 2.53, 79 0" stroke="#1e1e1e" stroke-width="1" fill="none"></path></g><g transform="translate(850 250) rotate(0 39.5 0)"><path d="M55.51 -8.55 C60.52 -6.73, 65.52 -4.91, 79 0 M55.51 -8.55 C63.78 -5.54, 72.06 -2.53, 79 0" stroke="#1e1e1e" stroke-width="1" fill="none"></path></g></g><mask id="mask-KKOyPFGOdmxg2x4qsy1yO"><rect x="0" y="0" fill="#fff" width="1029" height="350"></rect><rect x="873.5" y="240.79999999999995" fill="#000" width="32" height="18.4" opacity="1"></rect></mask><g transform="translate(873.5 240.8) rotate(0 16 9.199999999999989)"><text x="16" y="0" font-family="Helvetica, Segoe UI Emoji" font-size="16px" fill="#1e1e1e" text-anchor="middle" style="white-space: pre;" direction="ltr" dominant-baseline="text-before-edge">退出</text></g><g transform="translate(930 390) rotate(0 56.1279296875 11.5)"><text x="0" y="0" font-family="Helvetica, Segoe UI Emoji" font-size="20px" fill="#1e1e1e" text-anchor="start" style="white-space: pre;" direction="ltr" dominant-baseline="text-before-edge">   Exited状态</text></g><g stroke-linecap="round" transform="translate(930 10) rotate(0 60 20)"><path d="M10 0 C49.76 0, 89.53 0, 110 0 M10 0 C31.61 0, 53.22 0, 110 0 M110 0 C116.67 0, 120 3.33, 120 10 M110 0 C116.67 0, 120 3.33, 120 10 M120 10 C120 17.09, 120 24.17, 120 30 M120 10 C120 14.63, 120 19.27, 120 30 M120 30 C120 36.67, 116.67 40, 110 40 M120 30 C120 36.67, 116.67 40, 110 40 M110 40 C88.4 40, 66.8 40, 10 40 M110 40 C81.22 40, 52.44 40, 10 40 M10 40 C3.33 40, 0 36.67, 0 30 M10 40 C3.33 40, 0 36.67, 0 30 M0 30 C0 23.36, 0 16.72, 0 10 M0 30 C0 22.97, 0 15.94, 0 10 M0 10 C0 3.33, 3.33 0, 10 0 M0 10 C0 3.33, 3.33 0, 10 0" stroke="#1e1e1e" stroke-width="1" fill="none"></path></g><g transform="translate(950.5517578125 18.5) rotate(0 39.4482421875 11.5)"><text x="39.4482421875" y="0" font-family="Helvetica, Segoe UI Emoji" font-size="20px" fill="#1e1e1e" text-anchor="middle" style="white-space: pre;" direction="ltr" dominant-baseline="text-before-edge">GC Task</text></g><g mask="url(#mask-9p3q-hi_WN517mtCXTYud)" stroke-linecap="round"><g transform="translate(990 50) rotate(0 0 40)"><path d="M0 0 C0 13.33, 0 66.67, 0 80 M0 0 C0 13.33, 0 66.67, 0 80" stroke="#1e1e1e" stroke-width="1" fill="none"></path></g><g transform="translate(990 50) rotate(0 0 40)"><path d="M-8.55 56.51 C-6.02 63.46, -3.49 70.4, 0 80 M-8.55 56.51 C-5.55 64.75, -2.55 73, 0 80" stroke="#1e1e1e" stroke-width="1" fill="none"></path></g><g transform="translate(990 50) rotate(0 0 40)"><path d="M8.55 56.51 C6.02 63.46, 3.49 70.4, 0 80 M8.55 56.51 C5.55 64.75, 2.55 73, 0 80" stroke="#1e1e1e" stroke-width="1" fill="none"></path></g></g><mask id="mask-9p3q-hi_WN517mtCXTYud"><rect x="0" y="0" fill="#fff" width="1090" height="230"></rect><rect x="974" y="71.60000000000002" fill="#000" width="32" height="36.8" opacity="1"></rect></mask><g transform="translate(974 71.6) rotate(0 16 18.400000000000006)"><text x="16" y="0" font-family="Helvetica, Segoe UI Emoji" font-size="16px" fill="#1e1e1e" text-anchor="middle" style="white-space: pre;" direction="ltr" dominant-baseline="text-before-edge">回收</text><text x="16" y="18.4" font-family="Helvetica, Segoe UI Emoji" font-size="16px" fill="#1e1e1e" text-anchor="middle" style="white-space: pre;" direction="ltr" dominant-baseline="text-before-edge">资源</text></g></svg>